PathFileType	4	(X/Y/Z)	/Users/itak/Documents/Research/Walk-IL/dataset/trc/00466_00167.trc
DataRate	CameraRate	NumFrames	NumMarkers	Units	OrigDataRate	OrigDataStartFrame	OrigNumFrames
100.000000	100.000000	4	53	mm	100.000000	0	714
Frame#	Time	RPSI			LPSI			L3			STRN			T10			C7			CLAV			RBAK			LBAK			LSHO			LUPA			LAEL			LAOL			LWTS			LWPS			LFRA			LIFD			LHPS			LHTS			RSHO			RUPA			RAEL			RAOL			RWTS			RWPS			RFRA			RIFD			RHTS			RHPS			RBHD			LFHD			RFHD			LBHD			LHIP			RHIP			RASI			LASI			LKNE			LTHI			LANK			LTIP			LTOE			LMT1			LMT5			LHEE			RKNE			RTHI			RANK			RTIP			RTOE			RMT1			RMT5			RHEE			
		X1	Y1	Z1	X2	Y2	Z2	X3	Y3	Z3	X4	Y4	Z4	X5	Y5	Z5	X6	Y6	Z6	X7	Y7	Z7	X8	Y8	Z8	X9	Y9	Z9	X10	Y10	Z10	X11	Y11	Z11	X12	Y12	Z12	X13	Y13	Z13	X14	Y14	Z14	X15	Y15	Z15	X16	Y16	Z16	X17	Y17	Z17	X18	Y18	Z18	X19	Y19	Z19	X20	Y20	Z20	X21	Y21	Z21	X22	Y22	Z22	X23	Y23	Z23	X24	Y24	Z24	X25	Y25	Z25	X26	Y26	Z26	X27	Y27	Z27	X28	Y28	Z28	X29	Y29	Z29	X30	Y30	Z30	X31	Y31	Z31	X32	Y32	Z32	X33	Y33	Z33	X34	Y34	Z34	X35	Y35	Z35	X36	Y36	Z36	X37	Y37	Z37	X38	Y38	Z38	X39	Y39	Z39	X40	Y40	Z40	X41	Y41	Z41	X42	Y42	Z42	X43	Y43	Z43	X44	Y44	Z44	X45	Y45	Z45	X46	Y46	Z46	X47	Y47	Z47	X48	Y48	Z48	X49	Y49	Z49	X50	Y50	Z50	X51	Y51	Z51	X52	Y52	Z52	X53	Y53	Z53	

1	0	-1293.625854492188	967.6793212890625	-451.7857360839844	-1266.293090820312	963.5060424804688	-590.649169921875	-1270.766357421875	1053.855834960938	-507.4135437011719	-1006.870056152344	1259.935424804688	-479.8383178710938	-1292.338989257812	1177.759399414062	-515.113037109375	-1237.332763671875	1448.498168945312	-494.70947265625	-1046.824096679688	1371.25634765625	-488.0640869140625	-1304.584716796875	1326.038452148438	-406.9931945800781	-1255.894897460938	1399.01220703125	-597.4581909179688	-1145.935180664062	1424.676391601562	-664.3532104492188	-1140.7041015625	1306.135498046875	-764.3684692382812	-1108.719970703125	1090.502563476562	-793.498779296875	-1193.87109375	1072.878051757812	-737.5518188476562	-1022.760131835938	895.1024169921875	-741.3176879882812	-1064.904663085938	875.5382690429688	-800.8824462890625	-1082.053955078125	1004.181945800781	-800.2476196289062	-991.0363159179688	744.4776611328125	-760.7354736328125	-1050.254272460938	800.1508178710938	-801.4124145507812	-998.7766723632812	813.5991821289062	-751.1976318359375	-1185.029174804688	1421.202880859375	-328.3488159179688	-1209.717407226562	1360.919067382812	-253.797607421875	-1205.118286132812	1073.206787109375	-197.8151550292969	-1247.849731445312	1053.105712890625	-246.4803924560547	-1082.296997070312	875.9774169921875	-221.3516082763672	-1158.039184570312	856.379638671875	-177.2106018066406	-1199.895263671875	1014.855346679688	-187.2261962890625	-1072.244995117188	719.93994140625	-206.9698333740234	-1063.82275390625	780.1097412109375	-205.3922271728516	-1136.199096679688	771.8355102539062	-175.1415710449219	-1178.301879882812	1648.6767578125	-400.916748046875	-1033.808471679688	1675.49853515625	-546.7185668945312	-1044.090087890625	1676.693969726562	-416.3756713867188	-1181.291381835938	1649.41015625	-578.5536499023438	-1115.909301757812	860.9390869140625	-682.5692138671875	-1206.997192382812	863.816162109375	-295.929443359375	-1089.008544921875	902.5795288085938	-335.3278503417969	-1032.813110351562	895.9617309570312	-588.2357788085938	-1144.576904296875	445.0775146484375	-654.668212890625	-1106.430908203125	594.4329833984375	-668.754150390625	-1226.5908203125	39.98756790161133	-663.3814086914062	-1156.0341796875	299.670654296875	-671.2958984375	-1009.951538085938	43.85636901855469	-553.5880737304688	-1089.372802734375	52.45960998535156	-539.4064331054688	-1072.042236328125	43.74336624145508	-652.4935913085938	-1281.739868164062	47.16775894165039	-609.0035400390625	-1187.17822265625	470.3936462402344	-311.2972717285156	-1167.371704101562	729.8687133789062	-275.1897888183594	-1244.518920898438	47.67748260498047	-307.0234985351562	-1190.376342773438	328.9210510253906	-298.6228637695312	-1027.26416015625	47.87566375732422	-333.8161926269531	-1085.983764648438	49.6548957824707	-377.3505554199219	-1114.15234375	48.7723388671875	-271.3574523925781	-1305.412719726562	39.89750671386719	-357.6104431152344	
2	0.01	-1293.673583984375	967.6455688476562	-451.8456420898438	-1266.295166015625	963.4657592773438	-590.68994140625	-1270.802856445312	1053.839477539062	-507.4505004882812	-1006.9775390625	1259.90234375	-479.7793884277344	-1292.377197265625	1177.737060546875	-515.1593017578125	-1237.393310546875	1448.490112304688	-494.732177734375	-1046.895141601562	1371.257934570312	-488.0193176269531	-1304.677734375	1326.025146484375	-407.0744018554688	-1255.9287109375	1399.017211914062	-597.48876953125	-1145.931274414062	1424.677001953125	-664.34814453125	-1140.662841796875	1306.144409179688	-764.3697509765625	-1108.76220703125	1090.512573242188	-793.5405883789062	-1193.921875	1072.91357421875	-737.5889282226562	-1022.970458984375	894.9530029296875	-741.4461669921875	-1065.093994140625	875.5096435546875	-801.0114135742188	-1082.093627929688	1004.166259765625	-800.3030395507812	-991.608642578125	744.2080078125	-760.8701782226562	-1050.584838867188	800.0601196289062	-801.5525512695312	-999.1427612304688	813.4695434570312	-751.4363403320312	-1185.1953125	1421.154052734375	-328.3333129882812	-1209.90771484375	1360.8544921875	-253.8296966552734	-1205.3876953125	1073.1416015625	-197.83154296875	-1248.02978515625	1053.0546875	-246.6224822998047	-1082.529663085938	875.9111938476562	-221.4120025634766	-1158.317016601562	856.3399047851562	-177.2285003662109	-1200.124389648438	1014.785400390625	-187.3172912597656	-1072.513061523438	719.8794555664062	-207.0100708007812	-1064.063842773438	780.0459594726562	-205.4470672607422	-1136.469848632812	771.7628784179688	-175.2035217285156	-1178.49072265625	1648.680541992188	-400.9245300292969	-1033.798583984375	1675.503784179688	-546.5809326171875	-1044.160400390625	1676.758422851562	-416.2185668945312	-1181.259521484375	1649.446166992188	-578.5255126953125	-1115.81787109375	860.925537109375	-682.599365234375	-1207.065795898438	863.8118896484375	-295.9497680664062	-1089.060791015625	902.5936279296875	-335.3269653320312	-1032.82470703125	895.9714965820312	-588.2320556640625	-1144.47705078125	445.0347595214844	-654.6812133789062	-1106.261352539062	594.3988037109375	-668.7052612304688	-1226.579956054688	39.98603057861328	-663.4061279296875	-1155.972045898438	299.6447448730469	-671.3045043945312	-1009.970397949219	43.87368774414062	-553.5895385742188	-1089.411376953125	52.44124984741211	-539.4067993164062	-1072.048950195312	43.75041580200195	-652.4756469726562	-1281.748413085938	47.16424942016602	-609.0302124023438	-1187.200317382812	470.3963623046875	-311.3061218261719	-1167.431396484375	729.8753662109375	-275.1962585449219	-1244.520874023438	47.68368148803711	-307.0052795410156	-1190.388305664062	328.9241943359375	-298.6250915527344	-1027.264038085938	47.8753662109375	-333.8169555664062	-1085.990356445312	49.6640739440918	-377.3375244140625	-1114.1494140625	48.76784133911133	-271.3615417480469	-1305.401611328125	39.88796234130859	-357.6226806640625	
3	0.02	-1293.734130859375	967.6088256835938	-451.920166015625	-1266.297607421875	963.421875	-590.7415161132812	-1270.847412109375	1053.8203125	-507.4988708496094	-1007.109191894531	1259.868286132812	-479.7108764648438	-1292.422241210938	1177.708740234375	-515.2169799804688	-1237.478759765625	1448.475708007812	-494.7549438476562	-1046.998413085938	1371.259643554688	-487.9676208496094	-1304.797241210938	1326.007080078125	-407.1736450195312	-1255.969604492188	1399.02197265625	-597.5241088867188	-1145.930053710938	1424.678833007812	-664.342041015625	-1140.618041992188	1306.155151367188	-764.3687744140625	-1108.815307617188	1090.527099609375	-793.5856323242188	-1193.990966796875	1072.959106445312	-737.626953125	-1023.216735839844	894.7833251953125	-741.6005859375	-1065.32275390625	875.4739379882812	-801.1654663085938	-1082.169067382812	1004.147583007812	-800.3715209960938	-992.4840087890625	743.7923583984375	-760.9174194335938	-1050.982421875	799.957275390625	-801.7235107421875	-999.5843505859375	813.3077392578125	-751.7069091796875	-1185.401000976562	1421.09619140625	-328.3152465820312	-1210.142578125	1360.78369140625	-253.8789978027344	-1205.716430664062	1073.0615234375	-197.8639831542969	-1248.27001953125	1052.990478515625	-246.7776947021484	-1082.826049804688	875.8291015625	-221.4847869873047	-1158.671020507812	856.2841796875	-177.2552185058594	-1200.413940429688	1014.7060546875	-187.4166717529297	-1072.85693359375	719.7984619140625	-207.0509033203125	-1064.3759765625	779.96240234375	-205.5046691894531	-1136.823120117188	771.6730346679688	-175.2698516845703	-1178.7119140625	1648.67333984375	-400.921142578125	-1033.788208007812	1675.51318359375	-546.4129638671875	-1044.242065429688	1676.819091796875	-416.0394287109375	-1181.230224609375	1649.497436523438	-578.4808959960938	-1115.707641601562	860.9119262695312	-682.6312866210938	-1207.1572265625	863.80712890625	-295.9757385253906	-1089.128051757812	902.6100463867188	-335.3246459960938	-1032.835083007812	895.9849243164062	-588.2247924804688	-1144.357421875	444.9862976074219	-654.6980590820312	-1106.057250976562	594.3616943359375	-668.6493530273438	-1226.567749023438	39.98316192626953	-663.4359130859375	-1155.901245117188	299.6146545410156	-671.306396484375	-1009.993957519531	43.89641189575195	-553.5914306640625	-1089.437133789062	52.42618179321289	-539.4004516601562	-1072.057250976562	43.7601318359375	-652.4540405273438	-1281.759765625	47.15687561035156	-609.0682983398438	-1187.234375	470.4004211425781	-311.318603515625	-1167.510986328125	729.884521484375	-275.2062683105469	-1244.52392578125	47.69036865234375	-306.9857788085938	-1190.407836914062	328.9277954101562	-298.6305236816406	-1027.264526367188	47.87508392333984	-333.8176574707031	-1085.995971679688	49.67227172851562	-377.3242797851562	-1114.1484375	48.76442718505859	-271.3624877929688	-1305.3916015625	39.87921142578125	-357.6331787109375	
4	0.03	-1293.804565429688	967.5728759765625	-452.0057373046875	-1266.300170898438	963.37939453125	-590.8019409179688	-1270.897827148438	1053.799682617188	-507.5581970214844	-1007.257141113281	1259.838745117188	-479.6371154785156	-1292.470825195312	1177.676147460938	-515.2835083007812	-1237.589721679688	1448.453369140625	-494.7745056152344	-1047.132690429688	1371.261352539062	-487.9122924804688	-1304.93896484375	1325.983520507812	-407.2855834960938	-1256.015869140625	1399.025756835938	-597.5615844726562	-1145.932495117188	1424.681762695312	-664.334716796875	-1140.574951171875	1306.1669921875	-764.3638916015625	-1108.8779296875	1090.545532226562	-793.628662109375	-1194.078369140625	1073.013061523438	-737.65966796875	-1023.483459472656	894.6083984375	-741.771728515625	-1065.579833984375	875.4326171875	-801.3348999023438	-1082.28857421875	1004.127014160156	-800.4496459960938	-993.7227783203125	743.2145385742188	-760.8197631835938	-1051.424926757812	799.8540649414062	-801.9181518554688	-1000.077819824219	813.120361328125	-751.98583984375	-1185.636596679688	1421.033447265625	-328.2958068847656	-1210.410522460938	1360.713134765625	-253.9464263916016	-1206.087646484375	1072.970825195312	-197.9135284423828	-1248.564208984375	1052.915893554688	-246.9328002929688	-1083.175415039062	875.7347412109375	-221.5640869140625	-1159.089111328125	856.212158203125	-177.2908935546875	-1200.75244140625	1014.62353515625	-187.5146331787109	-1073.267333984375	719.6995849609375	-207.0875549316406	-1064.750854492188	779.859619140625	-205.5562591552734	-1137.249389648438	771.570068359375	-175.3335266113281	-1178.948608398438	1648.65185546875	-400.9010009765625	-1033.7802734375	1675.527221679688	-546.2242431640625	-1044.328857421875	1676.86474609375	-415.8531188964844	-1181.2109375	1649.563232421875	-578.4169921875	-1115.586547851562	860.9002075195312	-682.6611938476562	-1207.270263671875	863.8019409179688	-296.0061340332031	-1089.208618164062	902.6277465820312	-335.32080078125	-1032.839233398438	896.0028686523438	-588.214111328125	-1144.227905273438	444.93701171875	-654.71826171875	-1105.833618164062	594.3258666992188	-668.59130859375	-1226.555419921875	39.97860717773438	-663.46875	-1155.8291015625	299.5811462402344	-671.299072265625	-1010.020935058594	43.92405700683594	-553.5942993164062	-1089.445556640625	52.41615295410156	-539.3867797851562	-1072.067138671875	43.77213287353516	-652.4307250976562	-1281.77294921875	47.14589691162109	-609.1151733398438	-1187.282348632812	470.4061584472656	-311.3348388671875	-1167.609375	729.8963623046875	-275.2200622558594	-1244.528442382812	47.69635009765625	-306.9680480957031	-1190.436767578125	328.931640625	-298.6395263671875	-1027.265625	47.8748893737793	-333.8182067871094	-1086.000122070312	49.67794799804688	-377.3128356933594	-1114.150146484375	48.76274108886719	-271.3594055175781	-1305.38427734375	39.87207412719727	-357.6401672363281	
